# xmcd
#
# Track frame offsets:
#	150
#	22542
#	47320
#	59305
#	78540
#	93835
#	111772
#	134760
#	157202
#	174407
#	199410
#
# Disc length: 2816 seconds
#
# Revision: 1
# Processed by: cddbd v1.5.1PL0 Copyright (c) Steve Scherf et al.
# Submitted via: CDex 1.50Beta5
#
DISCID=8a0afe0b
DTITLE=具島直子 - mellow medicine
DYEAR=1999
DGENRE=
TTITLE0=Dear my D.J.
TTITLE1=missing you
TTITLE2=Angel
TTITLE3=声を聴かせて
TTITLE4=光と影
TTITLE5=you can fly
TTITLE6=12月の街
TTITLE7=Dear My D.J.
TTITLE8=pure
TTITLE9=mellow medicine
TTITLE10=good night
EXTD=
EXTT0=
EXTT1=
EXTT2=
EXTT3=
EXTT4=
EXTT5=
EXTT6=
EXTT7=
EXTT8=
EXTT9=
EXTT10=
PLAYORDER=
